<?xml version="1.0" encoding="UTF-8"?>
<svg xmlns="http://www.w3.org/2000/svg" width="34" height="34" viewBox="0 0 34 34" fill="none">
    <circle cx="17" cy="17" r="16.5" stroke="#fd8053d0"></circle>
    <path d="M17.4987 14.6936C16.5041 14.6936 15.6924 15.5053 15.6924 16.5C15.6924 17.4946 16.5041 18.3063 17.4987 18.3063C18.4933 18.3063 19.305 17.4946 19.305 16.5C19.305 15.5053 18.4933 14.6936 17.4987 14.6936ZM22.9162 16.5C22.9162 15.7519 22.923 15.0107 22.8809 14.2641C22.8389 13.3969 22.6411 12.6271 22.0069 11.993C21.3714 11.3574 20.6031 11.161 19.7359 11.1189C18.9879 11.0769 18.2467 11.0837 17.5 11.0837C16.7521 11.0837 16.0109 11.0769 15.2642 11.1189C14.3969 11.161 13.6273 11.3588 12.9931 11.993C12.3576 12.6284 12.1611 13.3969 12.1191 14.2641C12.0771 15.0121 12.0839 15.7533 12.0839 16.5C12.0839 17.2466 12.0771 17.9892 12.1191 18.7358C12.1611 19.6031 12.359 20.3728 12.9931 21.0069C13.6286 21.6425 14.3969 21.8389 15.2642 21.881C16.0122 21.923 16.7534 21.9162 17.5 21.9162C18.2481 21.9162 18.9893 21.923 19.7359 21.881C20.6031 21.8389 21.3728 21.6411 22.0069 21.0069C22.6425 20.3715 22.8389 19.6031 22.8809 18.7358C22.9243 17.9892 22.9162 17.248 22.9162 16.5ZM17.4987 19.2792C15.9607 19.2792 14.7194 18.038 14.7194 16.5C14.7194 14.9619 15.9607 13.7207 17.4987 13.7207C19.0366 13.7207 20.2779 14.9619 20.2779 16.5C20.2779 18.038 19.0366 19.2792 17.4987 19.2792ZM20.3918 14.2559C20.0326 14.2559 19.7426 13.9659 19.7426 13.6068C19.7426 13.2478 20.0326 12.9578 20.3918 12.9578C20.7508 12.9578 21.0408 13.2478 21.0408 13.6068C21.0409 13.6922 21.0242 13.7766 20.9916 13.8553C20.959 13.9342 20.9112 14.0058 20.8509 14.066C20.7907 14.1264 20.719 14.1741 20.6403 14.2068C20.5614 14.2394 20.477 14.256 20.3918 14.2559Z" fill="#fd8053d0"></path>
</svg> 