<?xml version="1.0" encoding="UTF-8"?>
<svg xmlns="http://www.w3.org/2000/svg" width="34" height="34" viewBox="0 0 34 34" fill="none">
    <circle cx="17" cy="17" r="16.5" stroke="#fd8053d0"></circle>
    <g clip-path="url(#clip0_47_86)">
        <path d="M21.1602 19.1095C20.8264 18.8232 20.4451 18.5849 20.1112 18.3464C19.3958 17.8219 18.7283 17.8219 18.2037 18.6326C17.9175 19.1095 17.4883 19.1095 17.0593 18.9188C15.8671 18.3466 14.9133 17.5359 14.3411 16.2959C14.1026 15.7714 14.1026 15.2469 14.675 14.8653C14.9612 14.6747 15.2949 14.4361 15.2472 13.9593C15.1995 13.3871 13.8166 11.4319 13.2444 11.2411C13.0059 11.1457 12.7675 11.1457 12.529 11.2411C11.2414 11.6703 10.6692 12.767 11.1937 14.0069C12.7196 17.8219 15.4855 20.4447 19.2051 22.066C19.4434 22.1613 19.682 22.1613 19.7773 22.209C20.6357 22.209 21.6371 21.3982 21.9233 20.5877C22.2095 19.8246 21.6371 19.491 21.1602 19.1095Z" fill="#fd8053d0"></path>
        <path d="M16.9635 11.5749C17.3994 11.6437 17.7945 11.7372 18.1589 11.8528C18.2206 11.8724 18.2852 11.89 18.3449 11.911C18.3663 11.9185 18.3857 11.9277 18.4068 11.9355C18.7928 12.0762 19.1387 12.2464 19.443 12.4527C20.513 13.1776 21.0941 14.3289 21.3028 16.0575C21.3028 16.3435 21.2074 16.7251 21.589 16.7251C21.589 16.7251 21.589 16.7251 21.5892 16.7251C21.9707 16.7251 21.8754 16.3435 21.8754 16.1052C21.9021 14.6298 21.1896 13.23 20.0942 12.2705C19.4385 11.6963 18.6456 11.2806 17.7921 11.1002C17.695 11.0797 17.5972 11.0613 17.4988 11.0468C17.3379 11.0234 17.1753 11.0085 17.0114 11.0027C16.9878 11.0087 16.9604 11.0109 16.9306 11.0109C16.858 11.0111 16.7731 10.9989 16.6922 11.0002C16.5352 11 16.3924 11.041 16.3916 11.2867C16.3916 11.2873 16.3913 11.288 16.3911 11.2889C16.3913 11.5749 16.7252 11.5272 16.9635 11.5749Z" fill="#fd8053d0"></path>
        <path d="M17.4406 12.3855C17.2023 12.3378 16.8208 12.1946 16.7731 12.5761C16.7255 12.9577 17.1068 12.91 17.3453 12.9577C19.0619 13.3392 19.6341 13.9591 19.9203 15.6282C19.968 15.8665 19.8726 16.2481 20.3018 16.2004C20.6355 16.1527 20.4925 15.8189 20.5402 15.6282C20.5402 14.0069 19.1572 12.5763 17.4406 12.3855Z" fill="#fd8053d0"></path>
        <path d="M17.5837 13.7204C17.3928 13.7204 17.2022 13.7204 17.1545 13.9111C17.0592 14.1973 17.2977 14.245 17.4884 14.2926C18.2036 14.3882 18.5851 14.7695 18.6328 15.4849C18.6804 15.6758 18.776 15.8188 18.9666 15.8188C19.2528 15.7711 19.2528 15.5326 19.2528 15.3419C19.2528 14.5314 18.3944 13.673 17.5837 13.7204Z" fill="#fd8053d0"></path>
    </g>
    <defs>
        <clipPath id="clip0_47_86">
            <rect width="11" height="11.2089" fill="white" transform="translate(11 11)"></rect>
        </clipPath>
    </defs>
</svg> 